<svg id="Capa_1" enable-background="new 0 0 512 512" height="512" viewBox="0 0 512 512" width="512" xmlns="http://www.w3.org/2000/svg"><g><g><path d="m291.356 300.447 83.88 22.368c30.954 8.254 52.492 36.288 52.492 68.324v113.361h-343.456v-113.361c0-32.036 21.538-60.069 52.492-68.324l83.88-22.368z" fill="#fb636f"/></g><g><path d="m379.573 324.137c10.591 12.465 16.84 28.543 16.84 45.789v134.574h31.315v-113.361c0-30.515-19.549-57.384-48.155-67.002z" fill="#fa4954"/></g><g><path d="m184.181 310.171c1.801 36.426 23.331 66.039 23.331 66.039l48.488-40.407v-35.356h-35.356z" fill="#eff3f5"/></g><g><path d="m327.819 310.171c-1.801 36.426-23.331 66.039-23.331 66.039l-48.488-40.407v-35.356h35.356z" fill="#eff3f5"/></g><g><path d="m148.923 164.075v114.149h214.154v-117.179z" fill="#695e66"/></g><g><path d="m256 335.803c-19.526 0-35.356-15.829-35.356-35.356v-43.437h70.711v43.437c.001 19.527-15.829 35.356-35.355 35.356z" fill="#fcd0a3"/></g><g><path d="m220.644 280.006c11.01 4.127 22.923 6.39 35.356 6.39s24.346-2.263 35.356-6.39v-22.996h-70.711v22.996z" fill="#ffb983"/></g><g><path d="m175.187 101.445v83.935c0 44.632 36.181 80.813 80.813 80.813s80.813-36.181 80.813-80.813v-83.935z" fill="#fcd0a3"/></g><g><path d="m336.813 185.38v-83.935h-19.193v105.057c0 15.77-4.534 30.474-12.345 42.911 19.173-14.776 31.538-37.954 31.538-64.033z" fill="#ffb983"/></g><g><path d="m148.923 161.045h26.264l19.066-15.889c7.262-6.051 16.415-9.365 25.868-9.365h25.203c10.716 0 20.994-4.257 28.572-11.835l14.429-14.429 14.429 14.429c7.578 7.578 17.855 11.835 28.572 11.835h5.487v25.254h26.264v-64.65c0-41.284-33.468-74.752-74.752-74.752 0-7.811-6.332-14.142-14.142-14.142h-24.244c-55.79 0-101.016 45.227-101.016 101.016z" fill="#786e79"/></g><g><path d="m319.635 28.517c10.727 12.94 17.178 29.553 17.178 47.674v59.6 25.254h26.264v-64.65c0-30.102-17.801-56.03-43.442-67.878z" fill="#695e66"/></g><g><path d="m342.874 184.278h-6.061v-48.488h6.061c11.158 0 20.203 9.045 20.203 20.203v8.081c0 11.159-9.045 20.204-20.203 20.204z" fill="#fcd0a3"/></g><g><path d="m169.126 184.278h6.061v-48.488h-6.061c-11.158 0-20.203 9.045-20.203 20.203v8.081c0 11.159 9.045 20.204 20.203 20.204z" fill="#fcd0a3"/></g><g><path d="m256 504.5 47.228-31.485c19.72-13.147 31.565-35.279 31.565-58.979v-73.182s-78.793-26.264-78.793-26.264l-78.793 26.264v73.182c0 23.7 11.845 45.832 31.565 58.979z" fill="#fce25c"/></g><g><path d="m225.582 447.8c-11.314-7.543-18.069-20.165-18.069-33.764v-51.34l48.487-16.163 48.488 16.163v51.34c0 13.599-6.755 26.221-18.07 33.764l-30.418 20.278z" fill="#f9c301"/></g><g><path d="m427.728 435.739c4.143 0 7.5-3.358 7.5-7.5v-37.1c0-35.379-23.875-66.455-58.059-75.57l-78.309-20.882v-8.963h64.217c4.143 0 7.5-3.358 7.5-7.5v-181.83c0-43.253-33.559-78.815-76.007-82.017-2.991-8.372-11.001-14.377-20.387-14.377h-24.243c-59.836 0-108.517 48.68-108.517 108.516v169.708c0 4.142 3.357 7.5 7.5 7.5h64.217v8.963l-78.309 20.882c-34.184 9.116-58.059 40.191-58.059 75.57v37.084c0 4.142 3.357 7.5 7.5 7.5s7.5-3.358 7.5-7.5v-37.084c0-28.594 19.296-53.709 46.924-61.077l38.845-10.359c.543 4.084 1.303 8.212 2.298 12.367l-5.004 1.668c-3.063 1.021-5.128 3.887-5.128 7.115v73.182c0 26.268 13.048 50.649 34.904 65.219l26.618 17.746h-68.746v-23.11c0-4.142-3.357-7.5-7.5-7.5s-7.5 3.358-7.5 7.5v23.11h-55.711v-33.714c0-4.142-3.357-7.5-7.5-7.5s-7.5 3.358-7.5 7.5v41.214c0 4.142 3.357 7.5 7.5 7.5h343.455c4.143 0 7.5-3.358 7.5-7.5v-41.214c0-4.142-3.357-7.5-7.5-7.5s-7.5 3.358-7.5 7.5v33.714h-55.711v-23.11c0-4.142-3.357-7.5-7.5-7.5s-7.5 3.358-7.5 7.5v23.11h-68.746l26.618-17.745c21.856-14.57 34.904-38.952 34.904-65.219v-73.182c0-3.228-2.065-6.094-5.128-7.115l-5.004-1.668c.994-4.155 1.754-8.283 2.298-12.367l38.845 10.359c27.628 7.368 46.924 32.483 46.924 61.077v37.1c.001 4.141 3.358 7.499 7.501 7.499zm-169.356-128.265c-1.541-.513-3.203-.513-4.744 0l-21.577 7.192c-2.542-4.272-3.911-9.179-3.911-14.216v-31.263c8.762 2.92 18.129 4.507 27.86 4.507s19.098-1.586 27.86-4.507v31.263c0 5.037-1.369 9.944-3.911 14.216zm-101.949-151.48c0-6.518 4.935-11.906 11.264-12.623v33.326c-6.329-.717-11.264-6.104-11.264-12.622zm26.264 8.563 16.369-13.64c5.901-4.918 13.382-7.627 21.065-7.627h25.203c12.797 0 24.827-4.983 33.875-14.031l9.126-9.126 9.126 9.126c8.572 8.572 19.821 13.488 31.862 13.982v42.139c0 40.425-32.889 73.313-73.313 73.313s-73.313-32.888-73.313-73.313zm172.89-.482c0 6.518-4.935 11.905-11.264 12.622v-33.326c6.329.717 11.264 6.104 11.264 12.623zm-56.717 106.649v-8.152c25.338-14.125 43.041-40.359 45.222-70.824 4.129-.178 8.024-1.267 11.495-3.066v82.042zm56.717-174.33v34.993c-3.808-1.974-8.126-3.097-12.703-3.097h-11.548c-8.79 0-17.054-3.423-23.268-9.638l-12.233-12.233v-76.848c33.565 3.743 59.752 32.276 59.752 66.823zm-105.638-81.394h24.243c3.663 0 6.643 2.979 6.643 6.642v84.777l-12.233 12.233c-6.214 6.215-14.478 9.638-23.268 9.638h-25.203c-11.186 0-22.078 3.944-30.668 11.104l-6.767 5.639v-9.243c0-4.142-3.357-7.5-7.5-7.5h-6.061c-4.577 0-8.895 1.123-12.703 3.097v-22.871c.001-51.565 41.952-93.516 93.517-93.516zm-93.516 255.724v-82.042c3.471 1.799 7.366 2.888 11.495 3.066 2.181 30.465 19.883 56.699 45.222 70.824v8.152zm35.74 45.08 22.039-5.877c.751 3.311 1.902 6.515 3.41 9.552l-23.474 7.824c-.881-3.876-1.547-7.718-1.975-11.499zm135.13 98.232c0 21.241-10.552 40.957-28.225 52.739l-43.068 28.711-43.068-28.712c-17.673-11.782-28.225-31.498-28.225-52.739v-67.776l71.293-23.764 71.293 23.764zm-9.43-86.732-23.474-7.824c1.507-3.037 2.658-6.242 3.41-9.552l22.039 5.877c-.429 3.78-1.095 7.622-1.975 11.499z"/><path d="m253.628 339.418-48.488 16.163c-3.063 1.021-5.128 3.887-5.128 7.115v51.34c0 16.111 8.004 31.066 21.41 40.004l30.418 20.278c1.26.84 2.71 1.26 4.16 1.26s2.9-.42 4.16-1.26l30.417-20.278c13.407-8.938 21.411-23.893 21.411-40.004v-51.34c0-3.228-2.065-6.094-5.128-7.115l-48.488-16.163c-1.541-.513-3.203-.513-4.744 0zm43.36 28.684v45.934c0 11.085-5.507 21.375-14.731 27.524l-26.257 17.504-26.258-17.505c-9.224-6.15-14.73-16.439-14.73-27.524v-45.934l40.988-13.662z"/></g></g></svg>